<svg xmlns="http://www.w3.org/2000/svg" viewBox="0 0 535.1 399.64"><defs><style>.cls-1,.cls-3{fill:#007aff;}.cls-2,.cls-4{fill:#0024a2;}.cls-3{font-size:94.59px;}.cls-3,.cls-5,.cls-6{font-family:MyriadPro-Regular, Myriad Pro;}.cls-4{stroke:#007aff;}.cls-4,.cls-6{stroke-miterlimit:10;}.cls-5,.cls-6{font-size:102.28px;fill:#fff;}.cls-6{stroke:#fff;}</style></defs><g id="Calque_2" data-name="Calque 2"><g id="Calque_1-2" data-name="Calque 1"><path class="cls-1" d="M194.38,89.14l.19-.34a20.92,20.92,0,0,0-18.19-31.2H115.2A57.6,57.6,0,0,1,172.8,0H288a57.6,57.6,0,0,1,57.6,57.6h0a115.13,115.13,0,0,0-28.77,3.63h0a114.71,114.71,0,0,0-50.4,27.91"/><path class="cls-1" d="M123.28,399.64l.19-.34"/><polyline class="cls-1" points="170.1 274.5 183.6 189 255.6 189 246.6 266.73"/><path class="cls-2" d="M183.6,189l-9,85.5c-8.91,5.15-20.39,7.24-30.62,9.87h0A115.18,115.18,0,0,1,0,172.8V91.45A86.31,86.31,0,0,1,57,10.07l.64-.23v163a57.6,57.6,0,0,0,57.6,57.6h7.26c0-.14-.08-.29-.11-.45C150.78,226.43,183.6,218.38,183.6,189Z"/><text class="cls-3" transform="translate(264.6 261)">ECH</text><rect class="cls-4" x="102.6" y="99" width="72" height="81" rx="4.58"/><text class="cls-5" transform="translate(111.6 175.5)">E </text><rect class="cls-4" x="192.6" y="99" width="72" height="81" rx="4.58"/><text class="cls-6" transform="translate(201.6 175.5)">E </text><rect class="cls-4" x="282.6" y="99" width="72" height="81" rx="4.58"/><text class="cls-5" transform="translate(291.6 175.5)">R</text><rect class="cls-4" x="372.6" y="99" width="72" height="81" rx="4.58"/><text class="cls-5" transform="translate(377.1 175.5)">A</text><rect class="cls-4" x="462.6" y="99" width="72" height="81" rx="4.58"/><text class="cls-5" transform="translate(471.6 175.5)">L</text></g></g></svg>